<svg xmlns="http://www.w3.org/2000/svg" width="95.187" height="37.125" viewBox="0 0 95.187 37.125"><defs><style>.a{fill:#f16123;}.b{fill:#0076bf;}</style></defs><g transform="translate(-135 -11.875)"><path class="a" d="M719.913,307.483a11.15,11.15,0,0,1-8.39,10.784.057.057,0,0,1-.053-.056h0a2.729,2.729,0,0,0,.053-.518v-1.856a2.768,2.768,0,0,0-.31-1.271h0a.059.059,0,0,1-.014-.037.058.058,0,0,1,.037-.054h0a7.431,7.431,0,1,0-9.972-6.991h0a7.428,7.428,0,0,0,4.948,6.991v0a.058.058,0,0,1,.03.051.06.06,0,0,1-.008.028l0,0a2.758,2.758,0,0,0-.314,1.278v1.856a2.74,2.74,0,0,0,.053.518h0a.057.057,0,0,1-.052.056,11.15,11.15,0,0,1-8.389-10.784V293.619a.057.057,0,0,1,.052-.056,3.72,3.72,0,0,1,3.677,3.71v1.8a.057.057,0,0,0,.054.047.131.131,0,0,0,.026,0,11.2,11.2,0,0,1,18.568,8.367M706.86,317.692v-1.856a1.865,1.865,0,0,1,3.729,0v1.856a1.865,1.865,0,0,1-3.729,0m20.519-11.13c0-10.251-3.729-18.562-18.647-18.562s-18.647,8.311-18.647,18.562,3.729,18.562,18.647,18.562,18.647-8.311,18.647-18.562" transform="translate(-555.085 -276.125)"/><path class="b" d="M762.222,315.863a2.49,2.49,0,1,1-2.486-2.639,2.484,2.484,0,0,1,2.486,2.639m2.524,0a4.932,4.932,0,0,0-4.933-4.933,4.744,4.744,0,0,0-2.677.8V308.9a2.447,2.447,0,0,0-2.448-2.443V320.8h1.73a.717.717,0,0,0,.717-.717v-.086a4.745,4.745,0,0,0,2.677.8,4.932,4.932,0,0,0,4.933-4.933" transform="translate(-579.737 -283.194)"/><path class="b" d="M830.268,315.863a2.49,2.49,0,1,0,2.486-2.639,2.484,2.484,0,0,0-2.486,2.639m-2.524,0a4.932,4.932,0,0,1,4.933-4.933,4.744,4.744,0,0,1,2.677.8V308.9a2.447,2.447,0,0,1,2.448-2.443V320.8h-1.73a.717.717,0,0,1-.717-.717v-.086a4.745,4.745,0,0,1-2.677.8,4.932,4.932,0,0,1-4.933-4.933" transform="translate(-607.614 -283.194)"/><path class="b" d="M780.64,318.482a2.49,2.49,0,1,1-2.486-2.639,2.485,2.485,0,0,1,2.486,2.639m2.543,4.933V313.377h-1.725a.722.722,0,0,0-.722.717v.3a4.91,4.91,0,1,0-2.658,9.025,4.872,4.872,0,0,0,2.658-.784v.067a.717.717,0,0,0,.717.717Z" transform="translate(-586.78 -285.826)"/><path class="b" d="M810.334,339.331" transform="translate(-600.931 -295.719)"/><path class="b" d="M814.328,321.12a2.643,2.643,0,1,1,2.486-2.639,2.484,2.484,0,0,1-2.486,2.639m2.581-7.743v1.013a4.9,4.9,0,1,0,0,8.241v.784h2.447V313.377Z" transform="translate(-600.642 -285.826)"/><path class="b" d="M799.768,313.872l-2.543,5.593-2.541-5.588a.849.849,0,0,0-.775-.5h-2.14l4.112,9.043-2.731,6.008h2.144a.849.849,0,0,0,.748-.449l6.638-14.6h-2.14a.85.85,0,0,0-.773.494" transform="translate(-593.89 -285.849)"/></g></svg>